<?xml version="1.0" standalone="no"?>
<!DOCTYPE svg PUBLIC "-//W3C//DTD SVG 20010904//EN"
 "http://www.w3.org/TR/2001/REC-SVG-20010904/DTD/svg10.dtd">
<svg version="1.0" xmlns="http://www.w3.org/2000/svg"
 width="300.000000pt" height="300.000000pt" viewBox="0 0 300.000000 300.000000"
 preserveAspectRatio="xMidYMid meet">
<metadata>
Created by potrace 1.10, written by Peter Selinger 2001-2011
</metadata>
<g transform="translate(0.000000,300.000000) scale(0.100000,-0.100000)"
fill="#000000" stroke="none">
<path d="M1852 2613 c-11 -10 -61 -110 -110 -223 -49 -113 -264 -600 -476
-1082 -212 -482 -386 -888 -386 -902 0 -19 8 -27 36 -36 49 -16 142 -7 165 17
10 10 92 187 182 393 91 206 247 562 347 790 100 228 240 547 311 708 71 161
129 301 129 310 0 33 -22 42 -101 42 -59 0 -82 -4 -97 -17z m141 -25 c21 -16
36 22 -248 -623 -53 -121 -116 -265 -140 -320 -24 -55 -54 -125 -68 -155 -14
-30 -68 -154 -122 -275 -199 -453 -278 -632 -308 -700 -42 -96 -65 -117 -131
-113 -64 4 -66 14 -27 99 42 92 151 340 151 344 0 1 18 43 40 92 23 48 45 97
50 108 5 11 83 189 173 395 246 561 316 720 342 775 13 28 51 115 85 195 34
80 67 151 73 159 25 30 100 41 130 19z"/>
<path d="M530 1935 c-129 -79 -277 -170 -328 -201 -59 -36 -97 -66 -103 -81
-5 -13 -9 -62 -9 -108 0 -79 2 -87 28 -114 15 -16 135 -94 267 -174 132 -80
274 -166 315 -191 83 -52 99 -55 125 -26 16 18 19 37 18 118 0 53 -5 109 -11
123 -10 25 -81 70 -361 225 l-93 52 39 20 c21 11 117 66 213 121 96 56 182
105 190 109 22 13 32 70 28 159 -5 90 -17 113 -57 112 -15 0 -123 -60 -261
-144z m280 79 c17 -43 12 -146 -8 -170 -9 -11 -55 -42 -102 -69 -263 -148
-330 -193 -330 -222 0 -14 62 -62 120 -94 19 -11 42 -23 50 -29 8 -5 44 -25
80 -45 143 -78 166 -94 180 -121 15 -31 19 -130 7 -177 -12 -43 -1 -48 -347
163 -102 62 -203 123 -225 136 -22 13 -56 36 -75 52 -34 29 -35 31 -36 108 -2
95 11 118 85 154 28 14 51 28 51 33 0 4 7 7 15 7 8 0 15 4 15 9 0 5 8 11 17
15 10 3 56 30 103 60 47 31 89 55 93 56 8 0 48 25 197 123 67 44 97 47 110 11z"/>
<path d="M2169 2063 c-19 -22 -20 -223 -1 -246 7 -9 110 -71 228 -138 118 -67
214 -123 214 -125 0 -1 -97 -58 -216 -125 -118 -68 -220 -131 -225 -141 -14
-26 -23 -138 -15 -192 9 -55 30 -80 62 -72 40 10 664 397 675 418 6 11 13 55
16 98 6 79 -11 142 -42 153 -7 3 -153 91 -324 196 -175 108 -321 191 -335 191
-13 0 -30 -7 -37 -17z m121 -58 c30 -19 74 -45 98 -57 23 -12 42 -26 42 -30 0
-4 4 -8 9 -8 8 0 60 -31 199 -117 37 -23 94 -57 127 -76 33 -20 71 -47 85 -62
22 -23 24 -33 22 -102 -3 -93 -13 -110 -89 -155 -32 -18 -67 -38 -78 -45 -11
-7 -27 -16 -35 -20 -8 -4 -42 -25 -75 -47 -33 -23 -89 -57 -123 -76 -35 -19
-92 -54 -127 -77 -35 -23 -78 -49 -96 -59 -32 -16 -33 -16 -52 7 -15 19 -18
35 -14 94 8 105 7 103 128 169 165 91 298 172 309 189 9 15 8 23 -3 41 -13 19
-128 93 -207 133 -14 7 -43 24 -65 38 -22 14 -55 32 -74 40 -19 9 -47 30 -63
47 -25 28 -28 39 -28 100 0 76 11 108 38 108 9 0 42 -16 72 -35z"/>
</g>
</svg>
