<?xml version="1.0" standalone="no"?>
<!DOCTYPE svg PUBLIC "-//W3C//DTD SVG 20010904//EN"
 "http://www.w3.org/TR/2001/REC-SVG-20010904/DTD/svg10.dtd">
<svg version="1.0" xmlns="http://www.w3.org/2000/svg"
 width="300.000000pt" height="160.000000pt" viewBox="0 0 300.000000 160.000000"
 preserveAspectRatio="xMidYMid meet">
<metadata>
Created by potrace 1.10, written by Peter Selinger 2001-2011
</metadata>
<g transform="translate(0.000000,160.000000) scale(0.100000,-0.100000)"
fill="#000000" stroke="none">
<path d="M1360 1441 c-122 -33 -197 -77 -291 -170 -132 -132 -189 -265 -189
-446 0 -112 18 -186 71 -293 72 -143 216 -265 374 -315 99 -31 302 -31 389 1
144 53 255 138 335 258 155 231 139 532 -40 753 -50 61 -138 131 -217 170
-116 59 -304 77 -432 42z m300 -25 c178 -45 307 -143 391 -299 29 -54 34 -72
34 -132 0 -62 -5 -78 -38 -142 -47 -87 -147 -190 -220 -225 -59 -29 -150 -52
-187 -47 l-25 4 21 20 c12 11 40 38 64 60 23 22 52 60 65 85 20 41 22 56 19
165 -4 151 -9 175 -46 249 -62 124 -198 222 -342 248 -58 11 -65 14 -40 19 54
12 248 8 304 -5z m-241 -32 c80 -23 145 -63 211 -128 95 -94 134 -172 139
-279 l3 -58 -69 68 c-101 103 -126 111 -298 103 -158 -7 -207 -23 -301 -98
-90 -71 -173 -225 -175 -326 0 -31 0 -31 -11 -6 -6 14 -11 81 -11 150 -1 111
2 134 27 205 48 140 157 271 280 336 95 51 128 56 205 33z m-9 -311 c0 -4 -24
-30 -53 -58 -66 -62 -110 -136 -109 -178 1 -18 3 -84 4 -147 3 -107 5 -120 36
-181 64 -132 203 -234 357 -263 l70 -13 -45 -6 c-122 -17 -187 -18 -260 -3
-144 31 -245 84 -328 174 -39 43 -112 144 -112 156 0 3 -5 17 -11 33 -17 42
-19 63 -8 120 11 55 40 123 71 163 79 103 190 183 278 201 47 9 110 11 110 2z
m161 -24 c87 -44 189 -166 189 -225 0 -74 -166 -244 -238 -244 -64 0 -186 99
-231 188 -26 51 -26 63 -1 112 30 58 78 109 144 152 68 44 82 46 137 17z m555
-244 c-10 -176 -58 -287 -176 -406 -135 -135 -253 -172 -380 -118 -159 67
-288 221 -306 365 -10 82 0 95 36 46 57 -80 188 -156 236 -138 10 4 65 8 123
9 96 2 112 5 174 34 128 61 244 212 263 342 4 25 9 51 13 56 12 20 22 -93 17
-190z"/>
</g>
</svg>
