 <svg  version="1.0" xmlns="http://www.w3.org/2000/svg"  width="300.000000pt" height="225.000000pt" viewBox="0 0 300.000000 225.000000"  preserveAspectRatio="xMidYMid meet">  <g transform="translate(0.000000,225.000000) scale(0.100000,-0.100000)" fill="#ff0000" stroke="none"> <path d="M1490 1951 c0 -4 -54 -103 -120 -220 l-121 -212 112 -197 c61 -108 118 -207 126 -220 14 -23 19 -16 139 197 l125 221 -110 192 c-60 106 -115 205 -122 221 -12 26 -29 37 -29 18z m76 -178 c32 -54 64 -109 73 -123 37 -60 61 -113 61 -132 0 -25 -180 -346 -197 -352 -7 -3 -35 36 -69 97 -32 56 -66 118 -77 137 -11 19 -31 54 -45 78 l-24 42 68 118 c37 64 78 137 92 162 30 54 42 70 53 70 4 0 34 -44 65 -97z"/> <path d="M872 856 c-67 -117 -122 -215 -122 -217 0 -2 113 -3 251 -2 l251 3 119 210 c65 116 119 213 119 215 0 3 -112 5 -248 5 l-248 0 -122 -214z m550 178 c8 -7 -14 -64 -24 -64 -4 0 -8 -4 -8 -9 0 -15 -150 -275 -163 -283 -7 -4 -101 -8 -209 -8 -161 0 -198 3 -198 14 0 19 178 328 198 344 11 8 69 12 207 12 106 0 194 -3 197 -6z"/> <path d="M1510 1065 c0 -2 54 -99 119 -215 l119 -210 251 -3 c138 -1 251 0 251 2 0 2 -55 100 -122 217 l-122 214 -248 0 c-136 0 -248 -2 -248 -5z m473 -37 c19 -15 197 -326 197 -345 0 -10 -42 -13 -197 -13 -109 0 -203 4 -209 8 -19 12 -205 342 -199 352 10 16 387 13 408 -2z"/> <path d="M820 396 c0 -101 1 -106 21 -106 20 0 21 3 15 60 -8 72 6 80 25 13 10 -38 14 -43 20 -27 5 10 15 35 23 54 l15 35 -1 -65 c-2 -57 1 -65 17 -65 16 0 18 10 17 100 -1 92 -2 100 -20 103 -15 2 -23 -6 -32 -35 -18 -57 -26 -59 -42 -11 -11 31 -21 44 -36 46 -21 3 -22 0 -22 -102z"/> <path d="M1020 396 c0 -100 1 -106 20 -106 20 0 21 5 18 102 -3 89 -5 103 -20 106 -16 3 -18 -7 -18 -102z"/> <path d="M1080 478 c0 -11 7 -18 20 -18 18 0 20 -7 20 -85 0 -78 2 -85 20 -85 18 0 20 7 20 85 0 78 2 85 20 85 12 0 20 7 20 18 0 14 -10 17 -60 18 -52 1 -60 -2 -60 -18z"/> <path d="M1237 482 c-18 -19 -22 -49 -9 -68 4 -6 22 -19 40 -28 25 -13 32 -23 30 -39 -4 -29 -38 -35 -45 -8 -6 23 -43 30 -43 8 0 -22 39 -57 63 -57 31 0 67 27 67 50 0 34 -12 51 -51 71 -42 21 -47 30 -24 49 16 14 35 6 35 -16 0 -8 9 -14 21 -14 16 0 19 4 14 23 -14 46 -68 62 -98 29z"/> <path d="M1379 493 c0 -4 0 -44 1 -88 2 -92 15 -115 66 -115 54 0 74 36 74 131 0 72 -2 79 -20 79 -18 0 -20 -7 -20 -79 0 -86 -15 -115 -48 -94 -13 8 -17 27 -18 89 -1 64 -5 80 -18 82 -9 2 -16 0 -17 -5z"/> <path d="M1550 394 l0 -104 48 0 c59 0 92 21 92 59 0 16 -7 34 -15 41 -13 11 -13 14 0 27 38 37 6 73 -68 78 l-57 3 0 -104z m98 44 c2 -13 -3 -18 -17 -18 -30 0 -26 -29 5 -40 37 -14 28 -44 -14 -48 l-32 -3 0 66 0 66 27 -3 c17 -2 29 -10 31 -20z"/> <path d="M1720 395 c0 -98 1 -105 20 -105 19 0 20 7 20 105 0 98 -1 105 -20 105 -19 0 -20 -7 -20 -105z"/> <path d="M1816 484 c-9 -8 -16 -28 -16 -44 0 -24 8 -34 40 -52 29 -16 40 -29 38 -43 -4 -28 -38 -32 -45 -6 -6 24 -43 29 -43 6 0 -23 37 -55 65 -55 29 0 65 32 65 58 0 20 -31 52 -67 71 -23 12 -30 35 -14 45 14 9 41 -4 41 -20 0 -8 7 -14 15 -14 20 0 19 34 -1 54 -8 9 -26 16 -39 16 -13 0 -31 -7 -39 -16z"/> <path d="M1950 396 c0 -99 1 -106 20 -106 17 0 20 6 17 46 l-2 46 43 2 42 2 0 -48 c0 -41 3 -48 20 -48 19 0 20 7 20 105 0 98 -1 105 -20 105 -17 0 -20 -7 -20 -40 l0 -40 -45 0 -46 0 3 37 c2 29 -1 38 -14 41 -16 3 -18 -7 -18 -102z"/> <path d="M2140 395 c0 -98 1 -105 20 -105 19 0 20 7 20 105 0 98 -1 105 -20 105 -19 0 -20 -7 -20 -105z"/> </g> </svg> 