<?xml version="1.0" standalone="no"?>
<!DOCTYPE svg PUBLIC "-//W3C//DTD SVG 20010904//EN"
 "http://www.w3.org/TR/2001/REC-SVG-20010904/DTD/svg10.dtd">
<svg version="1.0" xmlns="http://www.w3.org/2000/svg"
 width="300.000000pt" height="270.000000pt" viewBox="0 0 300.000000 270.000000"
 preserveAspectRatio="xMidYMid meet">
<metadata>
Created by potrace 1.10, written by Peter Selinger 2001-2011
</metadata>
<g transform="translate(0.000000,270.000000) scale(0.100000,-0.100000)"
fill="#000000" stroke="none">
<path d="M2559 2616 c-2 -2 -85 -14 -184 -26 -285 -34 -525 -66 -530 -72 -3
-3 25 -25 62 -49 l67 -44 16 -97 c9 -54 19 -101 23 -104 3 -3 36 14 72 40 36
25 68 46 71 46 3 0 18 -10 34 -21 l29 -22 88 79 c201 179 283 257 283 265 0 9
-23 13 -31 5z m-91 -32 c-4 -3 -46 -16 -95 -29 -124 -32 -376 -105 -381 -110
-2 -2 -27 10 -55 28 -48 29 -49 31 -26 38 13 4 87 15 164 24 77 9 192 25 255
35 135 21 145 22 138 14z m27 -47 c-27 -23 -101 -88 -164 -143 l-115 -102 -58
41 c-32 23 -55 44 -51 48 5 3 76 37 158 74 83 37 175 80 205 96 77 39 83 36
25 -14z m-46 19 c-2 -2 -88 -40 -191 -86 l-188 -83 -20 -55 c-27 -71 -21 -91
7 -24 12 29 26 52 30 52 4 0 18 -8 31 -18 l22 -17 -51 -39 c-34 -25 -54 -35
-61 -28 -9 9 -40 163 -34 169 1 2 97 30 212 64 115 33 211 62 213 65 2 2 11 4
19 4 9 0 13 -2 11 -4z"/>
<path d="M1888 2193 c-24 -6 -23 -33 1 -33 21 0 45 23 34 33 -7 7 -8 7 -35 0z"/>
<path d="M1775 2137 c-10 -8 -15 -19 -11 -25 9 -15 56 6 56 25 0 17 -21 17
-45 0z"/>
<path d="M1675 2076 c-29 -21 -6 -43 24 -24 21 13 23 29 5 35 -5 2 -19 -3 -29
-11z"/>
<path d="M1592 1998 c-15 -15 -16 -38 -1 -38 12 0 38 29 39 43 0 11 -25 8 -38
-5z"/>
<path d="M1733 1929 c-13 -4 -23 -13 -23 -19 0 -13 47 -13 56 1 10 17 -9 28
-33 18z"/>
<path d="M1560 1885 c0 -24 24 -44 37 -31 9 8 -14 56 -27 56 -5 0 -10 -11 -10
-25z"/>
<path d="M1824 1898 c-8 -12 21 -38 43 -38 18 0 16 14 -5 33 -22 20 -28 21
-38 5z"/>
<path d="M1635 1860 c-13 -15 -16 -23 -8 -31 6 -6 9 -17 6 -24 -5 -15 32 -39
47 -30 17 10 11 21 -16 34 -26 11 -26 12 -8 32 12 13 14 23 8 29 -7 7 -17 4
-29 -10z"/>
<path d="M1866 1791 c-10 -11 -15 -25 -11 -30 10 -17 23 -13 36 10 16 30 -3
45 -25 20z"/>
<path d="M1556 1768 c-21 -30 -2 -52 20 -24 16 23 19 46 5 46 -6 0 -17 -10
-25 -22z"/>
<path d="M1740 1756 c0 -7 10 -16 22 -20 28 -7 49 11 28 24 -22 14 -50 12 -50
-4z"/>
<path d="M1492 1666 c-8 -19 -8 -27 0 -32 12 -8 40 24 35 40 -7 20 -24 16 -35
-8z"/>
<path d="M1446 1558 c-8 -33 -8 -38 8 -38 14 0 26 21 26 46 0 23 -27 16 -34
-8z"/>
<path d="M535 1460 c-3 -6 0 -12 7 -15 7 -2 186 -67 398 -143 212 -77 410
-147 440 -157 30 -9 58 -20 62 -24 4 -3 -231 -5 -522 -3 l-530 3 0 -25 0 -26
1100 0 1100 0 0 26 0 25 -525 -3 c-288 -2 -521 0 -517 3 4 3 207 76 452 163
245 87 449 162 454 167 28 26 -22 13 -215 -56 -261 -93 -343 -122 -389 -140
-19 -7 -75 -27 -125 -45 -49 -18 -122 -44 -162 -59 -47 -18 -76 -25 -87 -19
-8 5 -104 40 -213 79 -201 72 -245 88 -547 198 -93 33 -170 61 -172 61 -2 0
-6 -5 -9 -10z"/>
<path d="M1424 1457 c-7 -20 -2 -47 11 -50 14 -3 19 43 6 56 -7 7 -12 6 -17
-6z"/>
<path d="M152 684 c-38 -26 -26 -60 30 -89 30 -15 23 -30 -14 -30 -23 0 -34
-5 -36 -17 -3 -15 4 -18 38 -18 53 0 80 15 80 44 0 23 -28 56 -47 56 -6 0 -17
7 -24 16 -13 15 -11 17 19 12 24 -3 36 0 39 10 12 31 -47 43 -85 16z"/>
<path d="M803 690 c-50 -21 -60 -105 -17 -139 30 -24 90 -27 116 -7 40 30 44
98 8 131 -22 20 -78 28 -107 15z m75 -42 c28 -28 7 -78 -33 -78 -27 0 -45 18
-45 45 0 27 18 45 45 45 12 0 26 -5 33 -12z"/>
<path d="M1470 690 c0 -3 14 -26 32 -49 23 -32 31 -53 30 -77 -2 -30 0 -34 23
-34 22 0 25 4 25 33 0 22 11 49 30 75 17 23 30 44 30 47 0 3 -11 5 -25 5 -18
0 -29 -9 -41 -32 l-17 -33 -15 32 c-10 22 -23 32 -43 35 -16 3 -29 2 -29 -2z"/>
<path d="M2390 615 l0 -85 26 0 c25 0 26 2 21 40 -3 22 -2 40 1 40 4 0 28 -21
54 -47 l48 -47 0 87 c0 80 -2 87 -20 87 -17 0 -20 -7 -20 -42 l0 -42 -48 47
c-26 26 -51 47 -55 47 -4 0 -7 -38 -7 -85z"/>
<path d="M442 673 c2 -11 11 -17 21 -15 15 2 17 -6 17 -63 0 -63 1 -65 25 -65
25 0 26 1 23 63 -3 54 -1 62 15 59 11 -2 17 4 17 18 0 18 -6 20 -61 20 -52 0
-60 -2 -57 -17z"/>
<path d="M1140 610 c0 -79 0 -80 25 -80 21 0 25 4 23 23 -4 33 15 36 30 4 9
-18 21 -27 38 -27 29 0 29 3 7 36 -10 16 -13 28 -6 32 19 14 23 45 8 68 -13
20 -24 24 -70 24 l-55 0 0 -80z m88 27 c3 -12 -3 -17 -22 -17 -25 0 -35 18
-19 34 12 12 38 2 41 -17z"/>
<path d="M1840 610 l0 -80 50 0 c44 0 50 3 50 21 0 16 -5 20 -27 17 -28 -3
-28 -3 -27 60 1 59 0 62 -23 62 -22 0 -23 -3 -23 -80z"/>
<path d="M2140 610 c0 -73 2 -80 20 -80 18 0 20 7 20 80 0 73 -2 80 -20 80
-18 0 -20 -7 -20 -80z"/>
<path d="M2750 610 l0 -80 61 0 c52 0 60 2 57 18 -2 12 -13 17 -37 17 -19 0
-36 6 -38 13 -3 8 7 12 31 12 25 0 36 4 36 15 0 11 -11 15 -36 15 -28 0 -35 3
-32 18 2 12 13 17 38 17 25 0 36 5 38 18 3 15 -5 17 -57 17 l-61 0 0 -80z"/>
<path d="M368 160 c-2 -35 1 -50 10 -50 6 0 12 7 12 15 0 8 9 15 20 15 11 0
20 -7 20 -15 0 -8 5 -15 10 -15 6 0 10 23 10 50 0 50 -16 70 -22 28 -2 -13
-10 -23 -18 -23 -8 0 -16 10 -18 23 -6 40 -20 23 -24 -28z"/>
<path d="M490 160 l0 -50 35 0 c41 0 48 19 8 21 -24 2 -25 2 -5 6 27 5 29 19
2 26 -28 7 -25 27 5 27 14 0 25 5 25 10 0 6 -16 10 -35 10 l-35 0 0 -50z"/>
<path d="M604 162 l-21 -48 47 0 47 0 -21 48 c-11 26 -23 48 -26 48 -3 0 -15
-22 -26 -48z"/>
<path d="M700 160 c0 -49 1 -50 30 -50 17 0 30 5 30 10 0 6 -7 10 -15 10 -11
0 -15 11 -15 40 0 29 -4 40 -15 40 -11 0 -15 -12 -15 -50z"/>
<path d="M780 200 c0 -5 7 -10 15 -10 11 0 15 -11 15 -40 0 -29 4 -40 15 -40
13 0 15 7 9 35 -5 27 -3 36 10 41 29 11 17 24 -24 24 -22 0 -40 -4 -40 -10z"/>
<path d="M880 160 c0 -38 4 -50 15 -50 8 0 15 7 15 15 0 8 7 15 15 15 8 0 15
-7 15 -15 0 -8 7 -15 15 -15 11 0 15 12 15 50 0 38 -4 50 -15 50 -9 0 -15 -9
-15 -25 0 -16 -6 -25 -15 -25 -9 0 -15 9 -15 25 0 16 -6 25 -15 25 -11 0 -15
-12 -15 -50z"/>
<path d="M1015 190 c-37 -41 7 -93 64 -75 29 9 16 26 -17 23 -21 -2 -28 2 -30
20 -3 22 3 26 46 22 25 -2 30 15 6 24 -28 11 -51 6 -69 -14z"/>
<path d="M1144 162 l-21 -48 47 0 47 0 -21 48 c-12 26 -23 48 -27 48 -3 0 -14
-22 -25 -48z"/>
<path d="M1245 160 c0 -33 4 -50 13 -50 6 0 12 7 12 15 0 8 4 15 9 15 5 0 11
-7 15 -15 3 -8 13 -15 21 -15 11 0 13 4 8 13 -4 6 -8 28 -8 47 0 33 -2 35 -35
38 l-35 3 0 -51z"/>
<path d="M1360 160 l0 -50 35 0 c41 0 48 19 8 21 -24 2 -25 2 -5 6 27 5 29 23
2 23 -11 0 -20 7 -20 15 0 9 9 15 25 15 14 0 25 5 25 10 0 6 -16 10 -35 10
l-35 0 0 -50z"/>
<path d="M1520 163 c0 -29 5 -53 10 -53 6 0 10 7 10 16 0 13 3 14 13 5 10 -8
17 -7 25 1 9 9 12 8 12 -5 0 -9 6 -17 13 -17 9 0 14 16 15 50 0 28 -3 50 -9
50 -5 0 -9 -3 -9 -7 0 -5 -8 -17 -16 -28 -15 -20 -16 -20 -40 10 l-24 30 0
-52z"/>
<path d="M1664 162 l-21 -48 47 0 47 0 -21 48 c-11 26 -22 48 -25 48 -4 0 -15
-22 -27 -48z"/>
<path d="M1770 160 c0 -48 1 -50 28 -50 15 0 32 4 38 8 39 27 14 92 -36 92
-29 0 -30 -1 -30 -50z m55 0 c0 -16 -6 -26 -17 -28 -14 -3 -18 3 -18 28 0 25
4 31 18 28 11 -2 17 -12 17 -28z"/>
<path d="M1888 160 l-3 -50 33 0 c36 0 44 16 10 23 l-23 4 23 2 c27 1 30 21 2
21 -11 0 -20 7 -20 15 0 8 9 15 20 15 11 0 20 5 20 10 0 6 -13 10 -29 10 -28
0 -29 -2 -33 -50z"/>
<path d="M2040 160 c0 -38 4 -50 15 -50 8 0 15 7 15 15 0 8 9 15 20 15 13 0
18 -5 14 -15 -4 -9 0 -15 10 -15 13 0 16 11 16 50 0 39 -4 50 -16 50 -10 0
-14 -7 -12 -22 2 -15 -3 -24 -14 -26 -14 -3 -18 3 -18 22 0 16 -6 26 -15 26
-11 0 -15 -12 -15 -50z"/>
<path d="M2166 173 c9 -59 11 -63 44 -63 32 0 35 3 45 63 5 29 3 37 -9 37 -10
0 -16 -12 -18 -37 -2 -26 -8 -38 -18 -38 -10 0 -16 12 -18 38 -2 23 -8 37 -17
37 -10 0 -12 -10 -9 -37z"/>
<path d="M2290 163 c0 -40 4 -53 15 -53 9 0 12 6 9 15 -4 8 -1 15 5 15 6 0 11
-5 11 -11 0 -8 5 -8 15 1 12 10 15 10 15 -4 0 -9 7 -16 15 -16 11 0 15 12 15
53 l-1 52 -26 -30 -26 -29 -23 29 -24 30 0 -52z"/>
<path d="M2437 161 l-23 -49 48 1 c26 0 48 2 48 3 0 7 -42 94 -45 94 -2 0 -15
-22 -28 -49z"/>
<path d="M2540 162 c0 -37 4 -52 14 -52 9 0 12 9 8 28 l-5 27 30 -27 c16 -16
31 -28 34 -28 2 0 4 23 5 50 0 35 -3 50 -13 50 -7 0 -13 -11 -13 -27 l0 -27
-30 29 -30 29 0 -52z"/>
</g>
</svg>
